<?xml version="1.0" standalone="no"?>
<!DOCTYPE svg PUBLIC "-//W3C//DTD SVG 20010904//EN"
 "http://www.w3.org/TR/2001/REC-SVG-20010904/DTD/svg10.dtd">
<svg version="1.0" xmlns="http://www.w3.org/2000/svg"
 width="512.000000pt" height="512.000000pt" viewBox="0 0 512.000000 512.000000"
 preserveAspectRatio="xMidYMid meet">
<metadata>
Created by potrace 1.14, written by Peter Selinger 2001-2017
</metadata>
<g transform="translate(0.000000,512.000000) scale(0.100000,-0.100000)"
fill="#000000" stroke="none">
<path d="M944 4962 c-55 -42 -115 -88 -133 -102 -18 -14 -44 -34 -57 -45 l-23
-20 37 -37 38 -37 105 77 c176 129 163 115 151 164 -6 24 -13 51 -14 60 -2 14
-25 1 -104 -60z"/>
<path d="M2488 5005 c-2 -2 -21 -6 -43 -9 -108 -17 -240 -73 -342 -145 l-55
-39 -46 14 c-72 22 -92 25 -169 24 -93 0 -135 -7 -198 -32 -96 -38 -186 -107
-249 -193 -11 -15 -19 -16 -62 -7 -27 6 -87 10 -134 8 -135 -4 -232 -58 -311
-172 -37 -54 -50 -85 -71 -168 -12 -44 -19 -52 -78 -90 -121 -78 -204 -179
-245 -296 -14 -41 -19 -81 -19 -155 1 -173 53 -277 183 -367 81 -57 134 -71
266 -73 66 -1 146 -5 177 -10 70 -9 169 7 242 39 l52 23 61 -28 c127 -58 182
-72 296 -75 76 -2 118 2 142 12 50 20 53 19 57 -33 l5 -48 -91 -87 c-96 -91
-104 -109 -79 -160 15 -31 85 -57 160 -60 29 -1 40 -5 35 -13 -18 -29 -127
-155 -135 -155 -8 0 -18 11 -168 180 -46 52 -94 106 -106 119 l-21 24 -37 -76
-37 -76 -87 68 -87 68 -75 -53 c-41 -29 -77 -53 -81 -54 -3 0 -49 24 -100 53
l-94 53 -107 -30 c-59 -17 -107 -35 -107 -41 -1 -24 -31 -48 -60 -47 l-30 1
66 -87 c37 -48 71 -93 77 -100 8 -11 5 -12 -19 -6 -38 9 -72 27 -106 56 -15
13 -77 59 -138 103 l-110 80 0 178 0 178 -61 133 -61 134 -109 -64 c-61 -35
-113 -64 -116 -64 -10 0 -32 -34 -33 -49 0 -8 -8 -23 -17 -33 -15 -17 -15 -21
0 -51 10 -17 26 -45 37 -62 11 -16 27 -43 36 -59 9 -16 31 -50 48 -75 17 -25
61 -93 96 -150 66 -106 80 -118 153 -135 l29 -7 -4 56 c-1 30 -2 55 0 55 4 0
29 -60 67 -165 l34 -94 -51 -56 c-35 -38 -56 -54 -67 -50 -9 4 -41 9 -71 12
-44 4 -59 2 -69 -11 -7 -9 -19 -16 -27 -16 -10 0 -12 -31 -8 -152 2 -84 6
-171 9 -193 3 -22 6 -47 6 -55 0 -8 4 -37 9 -65 5 -27 11 -63 14 -80 11 -77
83 -328 119 -415 6 -14 11 -27 12 -30 3 -15 65 -145 99 -210 69 -132 164 -277
266 -404 88 -109 281 -293 420 -399 87 -67 268 -177 365 -221 33 -15 74 -35
90 -43 80 -39 316 -119 405 -137 14 -3 57 -12 95 -20 223 -45 556 -54 785 -21
14 2 48 6 75 10 80 11 304 71 411 110 256 94 549 267 739 435 73 64 220 214
265 270 25 30 51 61 58 68 29 31 183 273 224 352 80 154 145 320 192 490 18
65 25 97 46 220 22 123 24 156 25 403 0 246 0 249 -23 267 -12 10 -30 17 -40
15 -9 -2 -22 -4 -27 -4 -6 -1 -22 -12 -37 -26 -30 -27 -27 -29 -84 37 -17 19
-36 38 -42 42 -7 4 -44 -16 -89 -48 -42 -31 -81 -52 -85 -48 -5 5 -35 62 -67
128 -59 119 -64 159 -10 93 26 -33 30 -35 88 -33 60 2 71 6 121 52 124 114
121 112 186 112 l60 0 106 158 c58 86 108 162 111 168 4 7 -3 24 -15 39 -20
25 -22 40 -22 161 -2 170 -6 176 -122 178 l-77 1 -49 -60 c-27 -33 -52 -64
-56 -70 -4 -5 -50 -64 -103 -130 -52 -66 -119 -151 -149 -190 -83 -107 -94
-116 -155 -131 -5 -2 -53 -18 -105 -37 -89 -32 -97 -37 -120 -78 -15 -26 -25
-62 -26 -89 l-2 -46 117 1 117 1 -50 -68 c-28 -37 -53 -67 -56 -67 -3 -1 -52
35 -110 79 -110 84 -103 82 -185 66 -11 -2 -40 -7 -65 -11 -25 -3 -52 -8 -61
-11 -13 -3 -18 5 -23 38 -13 89 -36 212 -41 217 -3 3 -16 -6 -29 -19 -13 -14
-36 -36 -52 -49 -24 -20 -206 -179 -289 -253 -12 -10 -70 -31 -130 -48 -61
-17 -132 -42 -158 -56 -27 -13 -51 -24 -53 -24 -2 0 -4 42 -4 93 l0 92 96 2
c163 3 254 47 240 116 -5 25 -54 93 -104 145 -58 62 -67 83 -63 161 3 86 6 94
31 86 67 -21 142 -33 184 -28 93 10 129 25 169 72 24 29 26 29 65 18 52 -16
55 -19 43 -49 -7 -18 -5 -35 9 -66 10 -22 16 -42 14 -45 -3 -3 8 -8 23 -12 15
-3 51 -17 80 -31 59 -26 56 -18 55 -147 -1 -72 1 -79 25 -94 14 -9 38 -18 54
-19 25 -2 37 9 105 104 43 59 78 108 80 110 1 2 29 3 62 3 l60 1 33 81 c40
101 38 99 102 132 62 31 107 70 164 142 34 43 43 65 53 125 16 94 16 219 1
288 -18 78 -85 207 -135 261 -45 49 -154 134 -185 144 -10 3 -26 26 -36 53
-42 112 -129 215 -212 252 l-44 20 18 32 c10 18 21 35 24 38 22 18 28 64 20
148 -2 22 -39 13 -75 -18 l-34 -31 -18 30 c-16 27 -22 29 -61 27 -28 -2 -51
-10 -67 -25 l-25 -23 30 -48 c28 -45 38 -94 22 -103 -5 -3 -29 -8 -54 -11 -26
-3 -68 -13 -95 -21 -47 -14 -63 -10 -64 17 0 16 -98 101 -140 123 -45 23 -150
58 -150 50 0 -3 -12 0 -27 6 -33 12 -236 12 -311 0 -43 -7 -61 -5 -90 9 -50
24 -149 57 -197 66 -39 7 -221 14 -227 9z"/>
<path d="M4925 4954 c-22 -9 -49 -17 -60 -20 -52 -10 -72 -26 -84 -64 -10 -34
-9 -45 14 -96 24 -54 26 -56 43 -40 10 9 22 16 26 16 4 0 31 15 60 34 l53 34
1 76 c0 42 -2 76 -6 75 -4 0 -25 -7 -47 -15z"/>
<path d="M348 4737 c-34 -56 -68 -111 -74 -122 -6 -11 -37 -63 -69 -115 l-58
-95 -1 -108 c-1 -110 3 -135 22 -123 6 3 32 9 59 12 51 5 73 8 141 19 23 4 52
8 65 10 142 17 167 30 167 86 0 37 -7 46 -90 126 -49 48 -90 90 -90 94 0 3 13
5 30 3 30 -4 60 24 60 56 0 8 12 40 26 70 l25 55 -38 35 c-22 19 -55 49 -75
67 l-37 32 -63 -102z"/>
</g>
</svg>
