<?xml version="1.0" standalone="no"?>
<!DOCTYPE svg PUBLIC "-//W3C//DTD SVG 20010904//EN"
 "http://www.w3.org/TR/2001/REC-SVG-20010904/DTD/svg10.dtd">
<svg version="1.0" xmlns="http://www.w3.org/2000/svg"
 width="1327.000000pt" height="1327.000000pt" viewBox="0 0 1327.000000 1327.000000"
 preserveAspectRatio="xMidYMid meet">
<metadata>
Created by potrace 1.11, written by Peter Selinger 2001-2013
</metadata>
<g transform="translate(0.000000,1327.000000) scale(0.100000,-0.100000)"
fill="#000000" stroke="none">
<path d="M6260 11759 c-225 -10 -477 -49 -679 -105 -183 -51 -492 -167 -557
-209 -11 -7 -29 -15 -40 -17 -10 -2 -21 -6 -24 -9 -3 -3 -32 -20 -65 -39 -106
-59 -229 -134 -282 -172 -29 -21 -57 -38 -63 -38 -5 0 -10 -3 -10 -7 0 -5 -17
-19 -37 -33 -21 -14 -45 -32 -53 -40 -9 -8 -33 -28 -53 -43 -77 -61 -233 -202
-291 -266 -17 -18 -42 -45 -56 -60 -52 -56 -127 -147 -186 -225 -60 -80 -174
-244 -174 -251 0 -1 -19 -34 -42 -71 -172 -284 -323 -694 -383 -1044 -44 -254
-59 -617 -34 -866 53 -554 250 -1082 573 -1539 39 -55 73 -102 76 -105 3 -3
35 -41 70 -85 92 -115 327 -346 455 -448 500 -398 1080 -635 1702 -696 142
-14 486 -15 623 -1 558 56 1080 249 1532 567 165 115 372 292 472 402 17 19
42 46 56 61 14 14 45 50 70 80 25 30 47 57 50 60 20 18 118 152 177 240 295
442 471 937 522 1464 14 137 14 490 1 616 -59 567 -252 1079 -585 1550 -32 47
-64 90 -70 96 -5 6 -21 25 -35 43 -49 65 -218 250 -279 305 -24 23 -56 52 -71
66 -15 14 -47 41 -71 60 -24 19 -54 45 -67 58 -12 12 -27 22 -32 22 -5 0 -15
8 -22 18 -7 9 -21 22 -30 27 -8 6 -69 46 -134 89 -66 44 -130 87 -144 96 -55
37 -262 142 -380 193 -449 195 -911 277 -1430 256z"/>
<path d="M3950 5668 c0 -6 -3 -9 -6 -5 -12 12 -118 -45 -197 -106 -84 -66
-240 -167 -256 -167 -5 0 -11 -4 -13 -8 -4 -9 -233 -122 -248 -122 -6 0 -18
-4 -28 -10 -17 -10 -90 -40 -95 -39 -1 1 -27 -9 -57 -21 -30 -11 -62 -23 -70
-25 -8 -2 -27 -8 -42 -14 -16 -6 -28 -8 -28 -5 0 4 -6 2 -13 -4 -7 -6 -26 -14
-42 -17 -40 -8 -60 -13 -60 -15 0 -1 -7 -3 -15 -5 -8 -2 -26 -7 -40 -10 -14
-3 -36 -8 -49 -11 -14 -3 -28 -7 -31 -9 -4 -2 -20 -7 -36 -9 -16 -3 -40 -8
-54 -11 -37 -8 -78 -16 -152 -29 -70 -13 -93 -19 -132 -35 -16 -6 -31 -9 -34
-6 -3 3 -16 -2 -29 -10 -13 -9 -23 -13 -23 -11 0 3 -12 -1 -27 -9 -15 -8 -30
-12 -35 -9 -4 3 -8 0 -8 -5 0 -6 -6 -11 -12 -11 -13 0 -179 -80 -188 -91 -3
-3 -24 -16 -47 -29 -24 -13 -43 -27 -43 -32 0 -4 -6 -8 -12 -8 -27 0 -237
-196 -283 -264 -11 -15 -25 -33 -30 -40 -6 -6 -22 -29 -35 -51 -13 -22 -29
-43 -34 -47 -6 -4 -8 -8 -5 -8 9 0 -122 -249 -169 -322 -33 -52 -40 -58 -67
-56 -16 1 -34 4 -40 7 -5 3 -19 6 -30 7 -11 1 -33 5 -50 9 -16 3 -39 8 -50 10
-23 4 -66 12 -110 21 -16 3 -39 7 -50 9 -11 1 -20 4 -20 5 0 1 -9 4 -20 6 -11
2 -33 6 -50 9 -16 4 -40 7 -52 7 -13 0 -23 3 -23 7 0 4 -10 7 -23 6 -12 -1
-26 0 -32 3 -5 4 -16 7 -25 8 -8 1 -28 5 -45 9 -184 38 -185 38 -209 8 -40
-50 -111 -160 -141 -219 -16 -32 -33 -61 -38 -62 -4 -2 -5 -8 -1 -13 3 -5 0
-9 -5 -9 -6 0 -10 -3 -9 -7 1 -9 -5 -27 -30 -88 -10 -22 -16 -43 -15 -47 2 -5
-2 -8 -8 -8 -6 0 -9 -6 -7 -12 3 -7 -1 -24 -8 -37 -7 -14 -11 -28 -8 -33 3 -4
0 -8 -6 -8 -6 0 -8 -4 -5 -10 3 -5 3 -16 -2 -22 -4 -7 -8 -17 -10 -23 -1 -5
-5 -21 -8 -35 -3 -14 -9 -38 -12 -55 -8 -47 -11 -60 -13 -60 -3 0 -15 -81 -26
-180 -7 -67 -11 -445 -4 -445 3 0 6 -24 7 -53 2 -68 8 -106 28 -196 9 -40 18
-78 19 -85 1 -6 5 -17 9 -24 5 -6 6 -12 2 -12 -3 0 -1 -8 4 -19 6 -10 13 -33
16 -50 3 -18 10 -40 15 -49 8 -16 21 -47 25 -64 2 -5 4 -10 5 -13 1 -3 3 -8 5
-12 1 -5 12 -30 25 -58 13 -27 23 -53 22 -58 -1 -4 3 -7 8 -7 5 0 9 -3 8 -7
-4 -11 56 -114 110 -190 23 -34 74 -94 111 -132 66 -67 69 -70 107 -64 69 10
79 11 79 14 0 1 14 3 30 4 17 2 40 5 51 8 49 12 101 20 131 20 18 0 33 3 33 6
0 4 8 7 18 8 21 1 92 11 136 19 17 3 42 8 56 9 41 6 93 14 120 20 14 3 43 8
65 11 22 3 51 8 65 10 14 3 39 7 55 9 17 2 46 7 65 11 49 10 84 8 88 -5 2 -6
12 -11 23 -11 10 0 19 -4 19 -8 0 -7 42 -33 60 -37 3 0 16 -7 30 -15 14 -8 34
-15 45 -17 11 -2 21 -8 23 -13 2 -6 9 -10 16 -10 8 0 35 -9 62 -19 61 -24 87
-34 97 -36 4 -2 8 -3 10 -4 1 -2 13 -5 27 -8 39 -7 55 -11 55 -13 0 -1 7 -3
15 -5 8 -2 26 -7 40 -10 45 -11 75 -17 95 -20 11 -1 20 -3 20 -5 0 -1 11 -3
25 -5 14 -2 41 -6 60 -9 44 -8 113 -16 166 -20 22 -1 45 -5 50 -8 13 -8 424
-6 424 1 0 4 21 7 48 8 77 3 214 19 312 38 19 4 46 9 60 10 14 2 25 4 25 5 0
1 8 3 18 6 36 9 43 10 67 18 38 13 131 77 168 116 52 55 97 128 125 208 15 39
24 72 21 72 -4 0 -2 6 3 13 5 6 8 23 7 37 -1 14 1 30 4 35 4 6 7 38 7 73 0 57
3 65 31 90 70 62 167 215 178 282 3 14 5 25 6 25 6 0 21 120 20 160 0 49 -6
108 -14 140 -3 17 -8 39 -10 51 -2 11 -11 37 -20 57 -8 20 -12 37 -9 37 3 0 0
7 -7 15 -10 12 -6 22 23 56 39 45 104 163 111 200 3 13 5 24 6 24 8 0 6 143
-2 153 -6 6 -8 12 -4 12 11 0 -24 74 -53 110 -48 60 -55 80 -37 98 11 12 16
13 16 4 0 -8 5 -10 12 -6 12 7 199 14 461 17 70 1 127 5 127 10 0 4 8 3 19 -2
10 -6 21 -8 25 -4 5 6 229 14 478 17 65 0 118 5 118 9 0 4 8 3 19 -2 10 -6 21
-7 25 -4 3 4 64 8 134 9 257 6 499 14 557 18 56 5 71 8 128 22 12 3 29 7 37 9
8 2 17 4 20 5 3 1 8 2 13 1 4 0 7 4 7 10 0 5 4 8 9 4 5 -3 12 -1 16 5 4 6 11
8 16 5 5 -4 9 -2 9 2 0 5 15 17 33 27 66 39 160 168 142 196 -4 6 -2 10 2 10
5 0 8 48 7 108 -1 59 -3 107 -4 107 -1 0 -3 7 -5 15 -14 72 -90 171 -158 206
-40 20 -121 45 -167 51 -65 9 -185 9 -202 1 -10 -5 -19 -4 -23 2 -4 6 -11 7
-17 4 -6 -4 -125 -8 -263 -9 -139 -1 -258 -6 -265 -10 -9 -6 -11 -4 -5 5 6 9
4 11 -6 5 -7 -5 -108 -10 -224 -12 -115 -1 -324 -4 -463 -6 -138 -2 -255 -6
-258 -10 -3 -3 -16 -2 -29 3 -13 5 -26 6 -29 3 -3 -4 -126 -8 -273 -10 -148
-2 -297 -5 -333 -7 -70 -3 -100 6 -100 29 0 8 -4 15 -9 15 -15 0 -2 50 19 72
11 12 28 22 37 23 10 1 27 6 38 12 11 6 22 11 25 11 33 3 179 73 250 121 96
64 134 100 219 207 16 19 58 107 71 149 20 59 21 71 24 184 2 94 -7 158 -27
177 -4 4 -7 14 -7 21 0 47 -141 189 -164 165 -3 -3 -6 0 -6 6 0 8 -20 12 -55
12 -35 0 -55 -4 -55 -12z"/>
<path d="M9195 5651 c-81 -37 -155 -150 -173 -265 -32 -201 47 -409 212 -556
92 -83 245 -167 379 -210 78 -25 103 -52 92 -99 -11 -52 -18 -53 -227 -47
-106 3 -335 8 -508 11 -173 3 -403 7 -510 10 -107 3 -337 7 -510 10 -173 3
-403 8 -510 10 -212 5 -299 -5 -383 -45 -64 -30 -124 -91 -155 -158 -23 -49
-27 -73 -30 -167 -3 -94 0 -118 19 -169 28 -76 93 -143 181 -184 121 -58 181
-66 638 -77 118 -3 256 -7 305 -10 50 -2 196 -7 325 -10 129 -3 273 -8 320
-10 47 -2 200 -7 340 -11 140 -4 266 -7 280 -9 37 -3 37 -31 0 -76 -42 -53
-78 -134 -83 -188 -8 -97 35 -223 112 -319 l42 -52 -25 -78 c-48 -154 -53
-243 -21 -407 16 -79 92 -209 168 -285 l45 -45 6 -97 c16 -248 144 -446 336
-519 42 -16 153 -39 265 -54 22 -3 49 -7 60 -10 94 -20 554 -28 707 -12 276
27 593 118 780 223 35 19 72 39 83 45 16 8 103 -3 350 -45 182 -30 348 -57
370 -60 22 -4 65 -11 95 -16 63 -11 96 -16 163 -26 l48 -6 70 73 c210 220 358
565 409 949 9 72 6 525 -4 580 -4 19 -12 62 -17 95 -16 96 -59 253 -96 350
-72 190 -225 444 -268 445 -11 0 -200 -36 -420 -79 -220 -44 -402 -77 -405
-73 -40 55 -96 152 -152 262 -87 170 -143 253 -237 353 -108 114 -246 214
-403 290 -154 76 -276 116 -438 147 -361 67 -709 184 -980 327 -104 56 -257
154 -295 190 -40 38 -118 86 -171 104 -67 24 -127 24 -179 0z"/>
</g>
</svg>
