<?xml version="1.0" standalone="no"?>
<!DOCTYPE svg PUBLIC "-//W3C//DTD SVG 20010904//EN"
 "http://www.w3.org/TR/2001/REC-SVG-20010904/DTD/svg10.dtd">
<svg version="1.0" xmlns="http://www.w3.org/2000/svg"
 width="680.000000pt" height="680.000000pt" viewBox="0 0 680.000000 680.000000"
 preserveAspectRatio="xMidYMid meet">
<metadata>
Created by potrace 1.14, written by Peter Selinger 2001-2017
</metadata>
<g transform="translate(0.000000,680.000000) scale(0.100000,-0.100000)"
fill="#000000" stroke="none">
<path d="M3188 5375 c-2 -2 -21 -6 -43 -9 -112 -18 -139 -24 -225 -53 -293
-98 -547 -314 -698 -595 -33 -60 -89 -201 -96 -241 -2 -15 -7 -30 -9 -35 -3
-4 -8 -27 -12 -52 -4 -25 -9 -48 -12 -53 -9 -14 -11 -289 -3 -347 14 -91 22
-135 27 -143 2 -4 7 -19 9 -34 10 -54 69 -191 122 -283 30 -52 58 -97 61 -100
4 -3 18 -21 31 -40 32 -45 141 -155 205 -205 28 -22 52 -43 53 -47 2 -5 8 -8
14 -8 5 0 22 -9 37 -19 123 -88 332 -164 516 -187 66 -9 262 -8 313 0 17 3 44
8 60 10 172 26 410 133 547 246 32 26 192 187 211 212 82 107 171 278 199 383
1 6 3 13 4 17 1 4 7 22 12 40 15 48 30 126 35 178 4 44 5 234 0 270 -4 37 -15
99 -22 134 -3 11 -7 32 -10 46 -2 14 -7 32 -11 40 -3 8 -7 17 -7 20 -12 55
-85 209 -137 288 -16 24 -29 47 -29 52 0 4 -3 10 -7 12 -5 2 -26 25 -48 53
-170 212 -424 367 -697 426 -74 16 -143 23 -245 24 -78 1 -144 1 -145 0z"/>
<path d="M2342 3020 c-12 -5 -46 -27 -75 -49 -70 -53 -237 -131 -337 -157 -21
-5 -142 -32 -171 -38 -35 -7 -100 -31 -150 -56 -42 -21 -137 -93 -151 -115 -3
-5 -15 -20 -26 -33 -11 -13 -33 -49 -48 -80 -33 -68 -73 -124 -84 -117 -8 5
-76 19 -150 31 -41 7 -46 8 -84 19 -58 16 -70 12 -102 -32 -33 -44 -82 -148
-89 -186 -3 -12 -10 -47 -16 -77 -16 -73 -16 -252 0 -320 29 -126 81 -234 148
-307 27 -30 32 -31 68 -23 37 8 58 11 168 26 23 3 58 10 77 14 69 18 104 14
170 -17 142 -67 327 -91 532 -70 116 12 158 27 203 72 42 41 71 113 67 164 -1
14 8 34 22 48 64 64 84 169 51 273 -4 12 4 34 22 61 36 55 38 120 5 167 -13
18 -20 33 -15 33 27 5 149 10 613 24 175 6 211 10 251 32 51 29 71 64 71 119
-1 76 -4 84 -33 114 -39 38 -84 47 -239 43 -353 -8 -746 -15 -792 -14 -20 1
-28 6 -28 19 0 19 20 32 83 53 20 7 37 16 37 19 0 3 15 13 33 23 17 10 46 37
64 60 101 136 35 329 -95 277z"/>
<path d="M4385 3018 c-32 -19 -42 -32 -58 -78 -9 -29 -12 -54 -6 -72 4 -15 6
-28 3 -28 -10 0 32 -87 55 -112 30 -35 106 -84 152 -99 46 -16 58 -26 52 -47
-4 -15 -14 -18 -66 -16 -66 2 -801 17 -852 17 -85 1 -143 -30 -164 -86 -15
-38 -14 -110 1 -125 7 -7 8 -12 3 -12 -5 0 7 -14 25 -30 56 -50 59 -51 555
-66 187 -5 314 -10 342 -13 8 -1 3 -15 -12 -37 -31 -46 -32 -100 -4 -151 11
-21 25 -42 29 -47 5 -5 5 -18 0 -30 -32 -84 -15 -192 42 -260 24 -30 33 -50
34 -83 3 -53 35 -117 77 -155 47 -41 152 -61 322 -62 183 -1 308 25 435 89 26
13 49 22 51 21 4 -4 38 -10 114 -22 17 -3 57 -10 90 -16 33 -5 74 -12 90 -15
17 -2 40 -6 53 -8 23 -4 43 13 87 70 25 34 87 145 80 145 -3 0 0 12 6 28 6 15
12 34 14 42 2 8 8 35 13 59 15 65 13 245 -5 331 -15 77 -75 216 -110 259 -19
24 -22 24 -84 13 -35 -6 -75 -13 -89 -16 -22 -5 -54 -11 -113 -22 -10 -2 -27
-6 -37 -9 -19 -6 -52 40 -99 138 -24 50 -127 161 -164 178 -12 5 -35 17 -52
27 -16 10 -50 25 -75 35 -38 14 -76 23 -215 52 -111 24 -264 92 -370 166 -76
53 -117 66 -150 47z"/>
</g>
</svg>
